<svg xmlns="http://www.w3.org/2000/svg" width="180" height="180" viewbox="0 0 180 180" preserveAspectRatio="none"><rect x="0" y="0" width="100%" height="100%" fill="rgb(75, 97, 131)" /><g fill="#222" stroke="#000" stroke-opacity="0.02" style="fill-opacity:0.063333333333333;" transform="translate(-15, -22.5)" ><rect x="15" y="0" width="15" height="45" /><rect x="0" y="15" width="45" height="15" /></g><g fill="#222" stroke="#000" stroke-opacity="0.02" style="fill-opacity:0.063333333333333;" transform="translate(165, -22.5)" ><rect x="15" y="0" width="15" height="45" /><rect x="0" y="15" width="45" height="15" /></g><g fill="#222" stroke="#000" stroke-opacity="0.02" style="fill-opacity:0.063333333333333;" transform="translate(-15, 157.5)" ><rect x="15" y="0" width="15" height="45" /><rect x="0" y="15" width="45" height="15" /></g><g fill="#222" stroke="#000" stroke-opacity="0.02" style="fill-opacity:0.063333333333333;" transform="translate(165, 157.5)" ><rect x="15" y="0" width="15" height="45" /><rect x="0" y="15" width="45" height="15" /></g><g fill="#222" stroke="#000" stroke-opacity="0.02" style="fill-opacity:0.028666666666667;" transform="translate(15, -22.5)" ><rect x="15" y="0" width="15" height="45" /><rect x="0" y="15" width="45" height="15" /></g><g fill="#222" stroke="#000" stroke-opacity="0.02" style="fill-opacity:0.028666666666667;" transform="translate(15, 157.5)" ><rect x="15" y="0" width="15" height="45" /><rect x="0" y="15" width="45" height="15" /></g><g fill="#222" stroke="#000" stroke-opacity="0.02" style="fill-opacity:0.063333333333333;" transform="translate(45, -22.5)" ><rect x="15" y="0" width="15" height="45" /><rect x="0" y="15" width="45" height="15" /></g><g fill="#222" stroke="#000" stroke-opacity="0.02" style="fill-opacity:0.063333333333333;" transform="translate(45, 157.5)" ><rect x="15" y="0" width="15" height="45" /><rect x="0" y="15" width="45" height="15" /></g><g fill="#ddd" stroke="#000" stroke-opacity="0.02" style="fill-opacity:0.124;" transform="translate(75, -22.5)" ><rect x="15" y="0" width="15" height="45" /><rect x="0" y="15" width="45" height="15" /></g><g fill="#ddd" stroke="#000" stroke-opacity="0.02" style="fill-opacity:0.124;" transform="translate(75, 157.5)" ><rect x="15" y="0" width="15" height="45" /><rect x="0" y="15" width="45" height="15" /></g><g fill="#222" stroke="#000" stroke-opacity="0.02" style="fill-opacity:0.11533333333333;" transform="translate(105, -22.5)" ><rect x="15" y="0" width="15" height="45" /><rect x="0" y="15" width="45" height="15" /></g><g fill="#222" stroke="#000" stroke-opacity="0.02" style="fill-opacity:0.11533333333333;" transform="translate(105, 157.5)" ><rect x="15" y="0" width="15" height="45" /><rect x="0" y="15" width="45" height="15" /></g><g fill="#ddd" stroke="#000" stroke-opacity="0.02" style="fill-opacity:0.124;" transform="translate(135, -22.5)" ><rect x="15" y="0" width="15" height="45" /><rect x="0" y="15" width="45" height="15" /></g><g fill="#ddd" stroke="#000" stroke-opacity="0.02" style="fill-opacity:0.124;" transform="translate(135, 157.5)" ><rect x="15" y="0" width="15" height="45" /><rect x="0" y="15" width="45" height="15" /></g><g fill="#ddd" stroke="#000" stroke-opacity="0.02" style="fill-opacity:0.037333333333333;" transform="translate(0, 7.5)" ><rect x="15" y="0" width="15" height="45" /><rect x="0" y="15" width="45" height="15" /></g><g fill="#ddd" stroke="#000" stroke-opacity="0.02" style="fill-opacity:0.037333333333333;" transform="translate(180, 7.5)" ><rect x="15" y="0" width="15" height="45" /><rect x="0" y="15" width="45" height="15" /></g><g fill="#222" stroke="#000" stroke-opacity="0.02" style="fill-opacity:0.063333333333333;" transform="translate(30, 7.5)" ><rect x="15" y="0" width="15" height="45" /><rect x="0" y="15" width="45" height="15" /></g><g fill="#ddd" stroke="#000" stroke-opacity="0.02" style="fill-opacity:0.054666666666667;" transform="translate(60, 7.5)" ><rect x="15" y="0" width="15" height="45" /><rect x="0" y="15" width="45" height="15" /></g><g fill="#ddd" stroke="#000" stroke-opacity="0.02" style="fill-opacity:0.054666666666667;" transform="translate(90, 7.5)" ><rect x="15" y="0" width="15" height="45" /><rect x="0" y="15" width="45" height="15" /></g><g fill="#ddd" stroke="#000" stroke-opacity="0.02" style="fill-opacity:0.072;" transform="translate(120, 7.5)" ><rect x="15" y="0" width="15" height="45" /><rect x="0" y="15" width="45" height="15" /></g><g fill="#222" stroke="#000" stroke-opacity="0.02" style="fill-opacity:0.063333333333333;" transform="translate(150, 7.5)" ><rect x="15" y="0" width="15" height="45" /><rect x="0" y="15" width="45" height="15" /></g><g fill="#222" stroke="#000" stroke-opacity="0.02" style="fill-opacity:0.028666666666667;" transform="translate(-15, 37.5)" ><rect x="15" y="0" width="15" height="45" /><rect x="0" y="15" width="45" height="15" /></g><g fill="#222" stroke="#000" stroke-opacity="0.02" style="fill-opacity:0.028666666666667;" transform="translate(165, 37.5)" ><rect x="15" y="0" width="15" height="45" /><rect x="0" y="15" width="45" height="15" /></g><g fill="#ddd" stroke="#000" stroke-opacity="0.02" style="fill-opacity:0.037333333333333;" transform="translate(15, 37.5)" ><rect x="15" y="0" width="15" height="45" /><rect x="0" y="15" width="45" height="15" /></g><g fill="#ddd" stroke="#000" stroke-opacity="0.02" style="fill-opacity:0.072;" transform="translate(45, 37.5)" ><rect x="15" y="0" width="15" height="45" /><rect x="0" y="15" width="45" height="15" /></g><g fill="#ddd" stroke="#000" stroke-opacity="0.02" style="fill-opacity:0.072;" transform="translate(75, 37.5)" ><rect x="15" y="0" width="15" height="45" /><rect x="0" y="15" width="45" height="15" /></g><g fill="#ddd" stroke="#000" stroke-opacity="0.02" style="fill-opacity:0.089333333333333;" transform="translate(105, 37.5)" ><rect x="15" y="0" width="15" height="45" /><rect x="0" y="15" width="45" height="15" /></g><g fill="#222" stroke="#000" stroke-opacity="0.02" style="fill-opacity:0.15;" transform="translate(135, 37.5)" ><rect x="15" y="0" width="15" height="45" /><rect x="0" y="15" width="45" height="15" /></g><g fill="#222" stroke="#000" stroke-opacity="0.02" style="fill-opacity:0.13266666666667;" transform="translate(0, 67.5)" ><rect x="15" y="0" width="15" height="45" /><rect x="0" y="15" width="45" height="15" /></g><g fill="#222" stroke="#000" stroke-opacity="0.02" style="fill-opacity:0.13266666666667;" transform="translate(180, 67.5)" ><rect x="15" y="0" width="15" height="45" /><rect x="0" y="15" width="45" height="15" /></g><g fill="#ddd" stroke="#000" stroke-opacity="0.02" style="fill-opacity:0.072;" transform="translate(30, 67.5)" ><rect x="15" y="0" width="15" height="45" /><rect x="0" y="15" width="45" height="15" /></g><g fill="#ddd" stroke="#000" stroke-opacity="0.02" style="fill-opacity:0.037333333333333;" transform="translate(60, 67.5)" ><rect x="15" y="0" width="15" height="45" /><rect x="0" y="15" width="45" height="15" /></g><g fill="#222" stroke="#000" stroke-opacity="0.02" style="fill-opacity:0.080666666666667;" transform="translate(90, 67.5)" ><rect x="15" y="0" width="15" height="45" /><rect x="0" y="15" width="45" height="15" /></g><g fill="#ddd" stroke="#000" stroke-opacity="0.02" style="fill-opacity:0.072;" transform="translate(120, 67.5)" ><rect x="15" y="0" width="15" height="45" /><rect x="0" y="15" width="45" height="15" /></g><g fill="#ddd" stroke="#000" stroke-opacity="0.02" style="fill-opacity:0.072;" transform="translate(150, 67.5)" ><rect x="15" y="0" width="15" height="45" /><rect x="0" y="15" width="45" height="15" /></g><g fill="#222" stroke="#000" stroke-opacity="0.02" style="fill-opacity:0.046;" transform="translate(-15, 97.5)" ><rect x="15" y="0" width="15" height="45" /><rect x="0" y="15" width="45" height="15" /></g><g fill="#222" stroke="#000" stroke-opacity="0.02" style="fill-opacity:0.046;" transform="translate(165, 97.5)" ><rect x="15" y="0" width="15" height="45" /><rect x="0" y="15" width="45" height="15" /></g><g fill="#222" stroke="#000" stroke-opacity="0.02" style="fill-opacity:0.046;" transform="translate(15, 97.5)" ><rect x="15" y="0" width="15" height="45" /><rect x="0" y="15" width="45" height="15" /></g><g fill="#222" stroke="#000" stroke-opacity="0.02" style="fill-opacity:0.098;" transform="translate(45, 97.5)" ><rect x="15" y="0" width="15" height="45" /><rect x="0" y="15" width="45" height="15" /></g><g fill="#ddd" stroke="#000" stroke-opacity="0.02" style="fill-opacity:0.02;" transform="translate(75, 97.5)" ><rect x="15" y="0" width="15" height="45" /><rect x="0" y="15" width="45" height="15" /></g><g fill="#ddd" stroke="#000" stroke-opacity="0.02" style="fill-opacity:0.089333333333333;" transform="translate(105, 97.5)" ><rect x="15" y="0" width="15" height="45" /><rect x="0" y="15" width="45" height="15" /></g><g fill="#222" stroke="#000" stroke-opacity="0.02" style="fill-opacity:0.080666666666667;" transform="translate(135, 97.5)" ><rect x="15" y="0" width="15" height="45" /><rect x="0" y="15" width="45" height="15" /></g><g fill="#ddd" stroke="#000" stroke-opacity="0.02" style="fill-opacity:0.054666666666667;" transform="translate(0, 127.5)" ><rect x="15" y="0" width="15" height="45" /><rect x="0" y="15" width="45" height="15" /></g><g fill="#ddd" stroke="#000" stroke-opacity="0.02" style="fill-opacity:0.054666666666667;" transform="translate(180, 127.5)" ><rect x="15" y="0" width="15" height="45" /><rect x="0" y="15" width="45" height="15" /></g><g fill="#222" stroke="#000" stroke-opacity="0.02" style="fill-opacity:0.046;" transform="translate(30, 127.5)" ><rect x="15" y="0" width="15" height="45" /><rect x="0" y="15" width="45" height="15" /></g><g fill="#222" stroke="#000" stroke-opacity="0.02" style="fill-opacity:0.15;" transform="translate(60, 127.5)" ><rect x="15" y="0" width="15" height="45" /><rect x="0" y="15" width="45" height="15" /></g><g fill="#ddd" stroke="#000" stroke-opacity="0.02" style="fill-opacity:0.02;" transform="translate(90, 127.5)" ><rect x="15" y="0" width="15" height="45" /><rect x="0" y="15" width="45" height="15" /></g><g fill="#ddd" stroke="#000" stroke-opacity="0.02" style="fill-opacity:0.037333333333333;" transform="translate(120, 127.5)" ><rect x="15" y="0" width="15" height="45" /><rect x="0" y="15" width="45" height="15" /></g><g fill="#ddd" stroke="#000" stroke-opacity="0.02" style="fill-opacity:0.10666666666667;" transform="translate(150, 127.5)" ><rect x="15" y="0" width="15" height="45" /><rect x="0" y="15" width="45" height="15" /></g></svg>